<?xml version="1.0" encoding="UTF-8"?>
<svg id="Logos_Horizontal" data-name="Logos Horizontal" xmlns="http://www.w3.org/2000/svg" viewBox="0 0 942.5 223.53">
  <defs>
    <style>
      .cls-1 {
        fill: #fff;
      }
    </style>
  </defs>
  <path class="cls-1" d="M43.77,35.11l-8.75,35.11,105.33,93.66,32.11-128.77H43.77ZM0,210.64h128.68l8.46-33.95L31.82,83.04,0,210.64ZM192.91,0l-42.98,172.39,57.51,51.13L263.16,0h-70.26ZM384.25,122.94v35.11h-48.82v52.72h-35.11v-52.72h-48.82v-35.11h48.82v-52.72h35.11v52.72h48.82Z"/>
  <g>
    <path class="cls-1" d="M463.08,95.14v33.39h33.81v24.15h-33.81v57.96h-30.03V70.78h76.44v24.36h-46.41Z"/>
    <path class="cls-1" d="M569.13,214.21c-28.77,0-45.99-17.85-45.99-42.84v-61.32c0-24.78,17.22-42.63,45.99-42.63s45.99,17.85,45.99,42.63v61.32c0,24.99-17.01,42.84-45.99,42.84ZM584.88,108.37c0-9.45-5.67-15.75-15.75-15.75s-15.54,6.3-15.54,15.75v64.68c0,9.45,5.67,15.75,15.54,15.75s15.75-6.3,15.75-15.75v-64.68Z"/>
    <path class="cls-1" d="M681.47,214.21c-29.61,0-46.83-19.11-46.83-43.26v-60.48c0-24.15,17.22-43.26,46.83-43.26s44.1,17.43,44.1,40.74v13.65h-26.88v-13.02c0-9.66-5.67-15.96-16.8-15.96s-16.8,6.51-16.8,15.54v65.31c0,8.82,5.67,15.33,16.8,15.33s16.8-6.3,16.8-15.96v-13.02h26.88v13.65c0,23.31-14.91,40.74-44.1,40.74Z"/>
    <path class="cls-1" d="M789.83,214.21c-26.46,0-45.78-15.96-45.78-39.27v-104.16h30.45v103.74c0,9.45,5.46,14.7,15.33,14.7s15.75-5.25,15.75-14.7v-103.74h29.19v104.16c0,23.31-18.27,39.27-44.94,39.27Z"/>
    <path class="cls-1" d="M897.77,214.21c-27.51,0-44.94-15.75-44.94-39.69v-7.14h27.51v4.62c0,11.76,5.88,18.06,16.8,18.06s15.96-6.09,15.96-15.75-7.98-16.17-24.15-24.57c-16.8-9.03-34.65-20.16-34.65-41.58s15.33-40.74,43.89-40.74c25.62,0,42.63,17.22,42.63,39.48v5.67h-27.09v-4.41c0-9.45-5.25-16.8-15.75-16.8-8.82,0-14.49,5.46-14.49,13.86,0,9.87,7.98,15.33,25.83,24.57,19.53,10.71,33.18,21.63,33.18,42,0,22.68-16.8,42.42-44.73,42.42Z"/>
  </g>
</svg>