<svg width="121" height="20" viewBox="0 0 121 20" fill="none" xmlns="http://www.w3.org/2000/svg">
<g clip-path="url(#clip0_37306_21474)">
<path d="M24.2266 7.58136H28.6583C30.7934 7.58136 31.8358 9.03955 31.8358 10.5863C31.8358 12.2658 30.6874 13.7683 28.4799 13.7683H25.4808V17.8911H24.2266V7.58136ZM28.3768 12.6034C29.7342 12.6034 30.5258 11.8674 30.5258 10.6582C30.5258 9.52377 29.8234 8.74348 28.4381 8.74348H25.4836V12.6006H28.3768V12.6034Z" fill="white"/>
<path d="M33.043 14.1944C33.043 11.7927 34.4896 10.3373 36.6692 10.3373C38.8488 10.3373 40.2954 11.7955 40.2954 14.1944C40.2954 16.5934 38.8488 18.0516 36.6692 18.0516C34.4896 18.0516 33.043 16.5934 33.043 14.1944ZM36.6692 16.9337C38.0851 16.9337 39.0412 15.9625 39.0412 14.1944C39.0412 12.4263 38.0851 11.4551 36.6692 11.4551C35.2533 11.4551 34.2972 12.4263 34.2972 14.1944C34.2972 15.9625 35.2533 16.9337 36.6692 16.9337Z" fill="white"/>
<path d="M42.4766 10.4811H43.6695V11.8812C44.0123 10.9543 44.7147 10.3926 45.8491 10.3926H46.3871V11.5547H45.9105C44.2688 11.5547 43.703 12.6726 43.703 14.2359V17.8883H42.4793V10.4811H42.4766Z" fill="white"/>
<path d="M52.0848 7.58142H58.6934V8.74354H53.3363V12.0999H58.1861V13.262H53.3363V16.7235H58.961V17.8856H52.082V7.58142H52.0848Z" fill="white"/>
<path d="M61.1445 7.41809H62.3681V17.8883H61.1445V7.41809Z" fill="white"/>
<path d="M69.2578 7.58142H73.6896C75.8218 7.58142 76.867 9.03961 76.867 10.5863C76.867 12.2659 75.7187 13.7683 73.5112 13.7683H70.5121V17.8911H69.2578V7.58142ZM73.4053 12.6035C74.7627 12.6035 75.5542 11.8674 75.5542 10.6583C75.5542 9.52383 74.8518 8.74354 73.4666 8.74354H70.5121V12.6007H73.4053V12.6035Z" fill="white"/>
<path d="M79.0469 7.41809H80.2705V17.8883H79.0469V7.41809Z" fill="white"/>
<path d="M82.4548 15.8878C82.4548 14.4157 83.5446 13.8568 84.7515 13.6936L86.527 13.4584C87.1235 13.3837 87.6001 13.2232 87.6001 12.5453C87.6001 11.765 87.0482 11.3223 85.9277 11.3223C84.7041 11.3223 84.0184 11.7927 83.8847 12.6615H82.6304C82.8394 11.1148 84.0491 10.3345 85.9417 10.3345C87.8342 10.3345 88.8209 11.1009 88.8209 12.7196V17.8883H87.6558V16.4744C87.1792 17.4317 86.2538 18.0488 84.9104 18.0488C83.5669 18.0488 82.4492 17.3266 82.4492 15.885L82.4548 15.8878ZM85.1556 16.9918C86.4545 16.9918 87.6029 16.1368 87.6029 14.6952V14.0754C87.3186 14.2082 86.9925 14.3106 86.3207 14.3991L85.203 14.5458C84.6066 14.6205 83.6951 14.8253 83.6951 15.8131C83.6951 16.6376 84.3362 16.9918 85.1584 16.9918H85.1556Z" fill="white"/>
<path d="M91.452 10.4811H92.6449V11.8812C93.1076 10.9543 93.9717 10.3345 95.3152 10.3345C96.9708 10.3345 97.8655 11.278 97.8655 12.8828V17.891H96.6419V13.0765C96.6419 11.9587 95.9256 11.4136 94.9695 11.4136C93.7153 11.4136 92.6728 12.3405 92.6728 13.9315V17.8938H91.4492V10.4867L91.452 10.4811Z" fill="white"/>
<path d="M99.9727 14.2525C99.9727 11.9255 101.389 10.3345 103.538 10.3345C105.372 10.3345 106.835 11.278 106.835 13.7517V14.5181H101.196C101.285 16.2115 102.197 16.9779 103.538 16.9779C104.477 16.9779 105.21 16.5961 105.508 15.7273H106.701C106.344 17.3626 104.94 18.0543 103.493 18.0543C101.522 18.0543 99.9727 16.8313 99.9727 14.2553V14.2525ZM105.625 13.486C105.625 12.2188 105.029 11.4108 103.551 11.4108C102.208 11.4108 101.433 12.2354 101.238 13.486H105.625Z" fill="white"/>
<path d="M109.49 16.0039V11.5408H108.043V10.4811H109.49V8.45012L110.713 8.11255V10.4838H112.458V11.5436H110.713V15.8434C110.713 16.5075 110.936 16.8312 111.639 16.8312H112.622V17.891H111.413C110.159 17.891 109.487 17.2574 109.487 16.0067L109.49 16.0039Z" fill="white"/>
<path d="M114.131 15.8878C114.131 14.4157 115.22 13.8568 116.427 13.6936L118.203 13.4584C118.799 13.3837 119.276 13.2232 119.276 12.5453C119.276 11.765 118.724 11.3223 117.604 11.3223C116.38 11.3223 115.694 11.7927 115.56 12.6615H114.306C114.515 11.1148 115.725 10.3345 117.617 10.3345C119.51 10.3345 120.497 11.1009 120.497 12.7196V17.8883H119.332V16.4744C118.855 17.4317 117.93 18.0488 116.586 18.0488C115.243 18.0488 114.125 17.3266 114.125 15.885L114.131 15.8878ZM116.831 16.9918C118.13 16.9918 119.279 16.1368 119.279 14.6952V14.0754C118.994 14.2082 118.668 14.3106 117.997 14.3991L116.879 14.5458C116.282 14.6205 115.371 14.8253 115.371 15.8131C115.371 16.6376 116.012 16.9918 116.834 16.9918H116.831Z" fill="white"/>
<path d="M15.108 6.05399C14.8656 5.74962 14.6008 5.46186 14.3165 5.19623C12.2734 3.09611 8.67783 0.0496826 8.67783 0.0496826C8.67783 0.0496826 5.08226 3.09611 3.03641 5.19623C2.7549 5.46186 2.49011 5.74685 2.2504 6.05122C2.2504 6.05122 2.2504 6.05399 2.24761 6.05675C1.15222 7.4264 0.5 9.15852 0.5 11.0401C0.5 15.4976 4.15968 19.1113 8.67783 19.1113C13.196 19.1113 16.8557 15.4976 16.8557 11.0401C16.8557 9.15852 16.2034 7.42917 15.1108 6.05675L15.108 6.05399ZM5.04602 7.43747L8.18448 10.2515V13.6106L4.88715 10.6029C4.70319 10.4341 4.53317 10.2459 4.38823 10.0439L3.7611 9.17789C4.0677 8.51382 4.50808 7.92169 5.04881 7.43747H5.04602ZM5.84876 6.84257C6.54 6.42199 7.33437 6.15083 8.18448 6.07612V8.93716L5.84876 6.84257ZM9.16839 6.07612C10.0185 6.15083 10.8129 6.42199 11.5041 6.84257L9.16839 8.93716V6.07612ZM9.16839 10.2542L12.3068 7.44023C12.8476 7.92445 13.288 8.51658 13.5946 9.18065L12.9674 10.0467C12.8197 10.2487 12.6525 10.4369 12.4685 10.6056L9.17117 13.6133V10.2542H9.16839ZM4.95126 15.2458C4.76451 15.0715 4.5917 14.8806 4.43283 14.6814C3.71093 13.7738 3.2789 12.6311 3.2789 11.3887C3.2789 11.0262 3.31514 10.6748 3.38482 10.3345L3.58829 10.6139C3.77503 10.8685 3.98687 11.1065 4.221 11.3195L8.18727 14.9387V18.2231C7.41799 17.559 5.92401 16.2419 4.95405 15.2458H4.95126ZM12.9256 14.6786C12.7807 14.8474 12.6051 15.0411 12.4044 15.2458C11.4344 16.2419 9.94046 17.5562 9.17117 18.2231V14.9387L13.1374 11.3195C13.3716 11.1065 13.5834 10.8685 13.7702 10.6139L13.9736 10.3345C14.0433 10.6748 14.0795 11.029 14.0795 11.3887C14.0795 12.6311 13.6475 13.7738 12.9256 14.6814V14.6786Z" fill="white"/>
</g>
<defs>
<clipPath id="clip0_37306_21474">
<rect width="120" height="19.0588" fill="white" transform="translate(0.5 0.470581)"/>
</clipPath>
</defs>
</svg>
