<svg width="20" height="21" viewBox="0 0 20 21" fill="none" xmlns="http://www.w3.org/2000/svg">
<path d="M6.31242 17.6624L9.99992 13.9957L13.6666 17.6624H6.31242ZM3.29159 15.9957C2.95825 15.9957 2.67353 15.8777 2.43742 15.6416C2.20131 15.4055 2.08325 15.1207 2.08325 14.7874V4.70406C2.08325 4.37073 2.20131 4.08601 2.43742 3.84989C2.67353 3.61378 2.95825 3.49573 3.29159 3.49573H16.7083C17.0416 3.49573 17.3263 3.61378 17.5624 3.84989C17.7985 4.08601 17.9166 4.37073 17.9166 4.70406V14.7874C17.9166 15.1207 17.7985 15.4055 17.5624 15.6416C17.3263 15.8777 17.0416 15.9957 16.7083 15.9957H13.1041V15.0582H16.7083C16.7777 15.0582 16.8402 15.0304 16.8958 14.9749C16.9513 14.9193 16.9791 14.8568 16.9791 14.7874V4.70406C16.9791 4.63462 16.9513 4.57212 16.8958 4.51656C16.8402 4.46101 16.7777 4.43323 16.7083 4.43323H3.29159C3.22214 4.43323 3.15964 4.46101 3.10409 4.51656C3.04853 4.57212 3.02075 4.63462 3.02075 4.70406V14.7874C3.02075 14.8568 3.04853 14.9193 3.10409 14.9749C3.15964 15.0304 3.22214 15.0582 3.29159 15.0582H6.89575V15.9957H3.29159Z" fill="white"/>
</svg>
