<svg width="21" height="20" viewBox="0 0 21 20" fill="none" xmlns="http://www.w3.org/2000/svg">
<g clip-path="url(#clip0_5484_10216)">
<path d="M14.349 0C14.3956 0 14.4421 0 14.4913 0C14.6055 1.41044 14.0671 2.46432 13.4128 3.22751C12.7708 3.98542 11.8917 4.7205 10.4699 4.60897C10.375 3.21872 10.9142 2.24301 11.5676 1.48158C12.1736 0.771967 13.2846 0.140517 14.349 0Z" fill="#2C2E33"/>
<path d="M18.6529 14.6819C18.6529 14.696 18.6529 14.7083 18.6529 14.7215C18.2533 15.9317 17.6834 16.9689 16.9878 17.9314C16.3528 18.8053 15.5747 19.9812 14.1854 19.9812C12.9848 19.9812 12.1874 19.2092 10.957 19.1882C9.65543 19.1671 8.93967 19.8337 7.74967 20.0014C7.61354 20.0014 7.47742 20.0014 7.34392 20.0014C6.47008 19.8749 5.76486 19.1829 5.25109 18.5593C3.73614 16.7168 2.56546 14.3368 2.34766 11.2911C2.34766 10.9925 2.34766 10.6948 2.34766 10.3962C2.43987 8.2164 3.49902 6.44412 4.90683 5.58521C5.64981 5.12853 6.6712 4.73947 7.80851 4.91336C8.29593 4.98889 8.79389 5.15575 9.23037 5.32086C9.64402 5.47982 10.1613 5.76173 10.6513 5.7468C10.9833 5.73714 11.3135 5.56413 11.6481 5.44206C12.6283 5.08813 13.589 4.68239 14.8555 4.87296C16.3774 5.10306 17.4577 5.7793 18.1251 6.82264C16.8376 7.64203 15.8197 8.87683 15.9936 10.9855C16.1482 12.9009 17.2618 14.0215 18.6529 14.6819Z" fill="#2C2E33"/>
</g>
<defs>
<clipPath id="clip0_5484_10216">
<rect width="20" height="20" fill="white" transform="translate(0.5)"/>
</clipPath>
</defs>
</svg>
