<svg width="20" height="21" viewBox="0 0 20 21" fill="none" xmlns="http://www.w3.org/2000/svg">
<path d="M6.39592 12.9333H8.12508C8.43064 12.9333 8.69105 12.8256 8.90633 12.6104C9.12161 12.3951 9.22925 12.1347 9.22925 11.8291V11.6208H8.39592V11.9749C8.39592 12.0027 8.38203 12.0305 8.35425 12.0583C8.32647 12.086 8.29869 12.0999 8.27092 12.0999H6.25008C6.2223 12.0999 6.19453 12.086 6.16675 12.0583C6.13897 12.0305 6.12508 12.0027 6.12508 11.9749V9.18327C6.12508 9.15549 6.13897 9.12771 6.16675 9.09994C6.19453 9.07216 6.2223 9.05827 6.25008 9.05827H8.27092C8.29869 9.05827 8.32647 9.07216 8.35425 9.09994C8.38203 9.12771 8.39592 9.15549 8.39592 9.18327V9.55827H9.22925V9.3291C9.22925 9.02355 9.12161 8.76313 8.90633 8.54785C8.69105 8.33257 8.43064 8.22494 8.12508 8.22494H6.39592C6.09036 8.22494 5.82994 8.33257 5.61467 8.54785C5.39939 8.76313 5.29175 9.02355 5.29175 9.3291V11.8291C5.29175 12.1347 5.39939 12.3951 5.61467 12.6104C5.82994 12.8256 6.09036 12.9333 6.39592 12.9333ZM11.8959 12.9333H13.6251C13.9306 12.9333 14.1911 12.8256 14.4063 12.6104C14.6216 12.3951 14.7292 12.1347 14.7292 11.8291V11.6208H13.8751V11.9749C13.8751 12.0027 13.8647 12.0305 13.8438 12.0583C13.823 12.086 13.7917 12.0999 13.7501 12.0999H11.7501C11.7223 12.0999 11.6945 12.086 11.6667 12.0583C11.639 12.0305 11.6251 12.0027 11.6251 11.9749V9.18327C11.6251 9.15549 11.639 9.12771 11.6667 9.09994C11.6945 9.07216 11.7223 9.05827 11.7501 9.05827H13.7501C13.7917 9.05827 13.823 9.07216 13.8438 9.09994C13.8647 9.12771 13.8751 9.15549 13.8751 9.18327V9.55827H14.7292V9.3291C14.7292 9.02355 14.6216 8.76313 14.4063 8.54785C14.1911 8.33257 13.9306 8.22494 13.6251 8.22494H11.8959C11.5904 8.22494 11.3299 8.33257 11.1147 8.54785C10.8994 8.76313 10.7917 9.02355 10.7917 9.3291V11.8291C10.7917 12.1347 10.8994 12.3951 11.1147 12.6104C11.3299 12.8256 11.5904 12.9333 11.8959 12.9333ZM4.12508 4.3291H15.8751C16.2084 4.3291 16.4931 4.44716 16.7292 4.68327C16.9654 4.91938 17.0834 5.2041 17.0834 5.53743V15.6208C17.0834 15.9541 16.9654 16.2388 16.7292 16.4749C16.4931 16.711 16.2084 16.8291 15.8751 16.8291H4.12508C3.79175 16.8291 3.50703 16.711 3.27091 16.4749C3.0348 16.2388 2.91675 15.9541 2.91675 15.6208V5.53743C2.91675 5.2041 3.0348 4.91938 3.27091 4.68327C3.50703 4.44716 3.79175 4.3291 4.12508 4.3291ZM3.85425 5.53743V15.6208C3.85425 15.6902 3.88203 15.7527 3.93758 15.8083C3.99314 15.8638 4.05564 15.8916 4.12508 15.8916H15.8751C15.9445 15.8916 16.007 15.8638 16.0626 15.8083C16.1181 15.7527 16.1459 15.6902 16.1459 15.6208V5.53743C16.1459 5.46799 16.1181 5.40549 16.0626 5.34993C16.007 5.29438 15.9445 5.2666 15.8751 5.2666H4.12508C4.05564 5.2666 3.99314 5.29438 3.93758 5.34993C3.88203 5.40549 3.85425 5.46799 3.85425 5.53743ZM3.85425 15.6208V5.53743C3.85425 5.4541 3.85425 5.38813 3.85425 5.33952C3.85425 5.29091 3.85425 5.2666 3.85425 5.2666C3.85425 5.2666 3.85425 5.29091 3.85425 5.33952C3.85425 5.38813 3.85425 5.4541 3.85425 5.53743V15.6208C3.85425 15.7041 3.85425 15.7701 3.85425 15.8187C3.85425 15.8673 3.85425 15.8916 3.85425 15.8916C3.85425 15.8916 3.85425 15.8673 3.85425 15.8187C3.85425 15.7701 3.85425 15.7041 3.85425 15.6208Z" fill="white"/>
</svg>
