<svg width="26" height="26" viewBox="0 0 26 26" fill="none" xmlns="http://www.w3.org/2000/svg">
<rect x="1" y="1" width="24" height="24" rx="12" stroke="#E1E1E2" stroke-width="0.857143"/>
<path d="M15.9599 8.97183C16.2522 8.6795 16.7261 8.67956 17.0185 8.97183C17.3108 9.2642 17.3108 9.73808 17.0185 10.0304L14.0536 12.9953L17.0185 15.9601C17.3108 16.2525 17.3108 16.7264 17.0185 17.0187C16.7261 17.3109 16.2522 17.311 15.9599 17.0187L12.995 14.0539L10.0302 17.0187C9.73784 17.3109 9.26391 17.311 8.97161 17.0187C8.6794 16.7264 8.67948 16.2525 8.97161 15.9601L11.9365 12.9953L8.97161 10.0304C8.67932 9.73813 8.67945 9.26421 8.97161 8.97183C9.26397 8.67947 9.73784 8.67947 10.0302 8.97183L12.995 11.9367L15.9599 8.97183Z" fill="white"/>
</svg>
