<svg width="20" height="21" viewBox="0 0 20 21" fill="none" xmlns="http://www.w3.org/2000/svg">
<mask id="mask0_21026_35804" style="mask-type:alpha" maskUnits="userSpaceOnUse" x="0" y="0" width="20" height="21">
<rect y="0.579102" width="20" height="20" fill="#D9D9D9"/>
</mask>
<g mask="url(#mask0_21026_35804)">
<path d="M4.42321 17.6625C4.00223 17.6625 3.64591 17.5167 3.35425 17.225C3.06258 16.9334 2.91675 16.577 2.91675 16.1561V13.0792H4.16675V16.1561C4.16675 16.2202 4.19348 16.279 4.24696 16.3323C4.30029 16.3858 4.35904 16.4125 4.42321 16.4125H7.50008V17.6625H4.42321ZM12.5001 17.6625V16.4125H15.577C15.6411 16.4125 15.6999 16.3858 15.7532 16.3323C15.8067 16.279 15.8334 16.2202 15.8334 16.1561V13.0792H17.0834V16.1561C17.0834 16.577 16.9376 16.9334 16.6459 17.225C16.3542 17.5167 15.9979 17.6625 15.577 17.6625H12.5001ZM2.91675 8.07918V5.00231C2.91675 4.58134 3.06258 4.22502 3.35425 3.93335C3.64591 3.64168 4.00223 3.49585 4.42321 3.49585H7.50008V4.74585H4.42321C4.35904 4.74585 4.30029 4.77259 4.24696 4.82606C4.19348 4.87939 4.16675 4.93814 4.16675 5.00231V8.07918H2.91675ZM15.8334 8.07918V5.00231C15.8334 4.93814 15.8067 4.87939 15.7532 4.82606C15.6999 4.77259 15.6411 4.74585 15.577 4.74585H12.5001V3.49585H15.577C15.9979 3.49585 16.3542 3.64168 16.6459 3.93335C16.9376 4.22502 17.0834 4.58134 17.0834 5.00231V8.07918H15.8334Z" fill="white"/>
</g>
</svg>
