<svg width="14" height="19" viewBox="0 0 14 19" fill="none" xmlns="http://www.w3.org/2000/svg">
<path d="M0 15.7693V14.7693H1.6155V6.84625C1.6155 5.53975 2.02892 4.39067 2.85575 3.399C3.68275 2.40733 4.73083 1.78975 6 1.54625V1C6 0.722167 6.097 0.486083 6.291 0.29175C6.485 0.0972496 6.72058 0 6.99775 0C7.27492 0 7.51125 0.0972496 7.70675 0.29175C7.90225 0.486083 8 0.722167 8 1V1.54625C9.26917 1.78975 10.3173 2.40733 11.1443 3.399C11.9711 4.39067 12.3845 5.53975 12.3845 6.84625V14.7693H14V15.7693H0ZM6.9965 18.3845C6.55133 18.3845 6.17142 18.2263 5.85675 17.91C5.54192 17.5937 5.3845 17.2134 5.3845 16.7693H8.6155C8.6155 17.2168 8.45692 17.5978 8.13975 17.9125C7.82275 18.2272 7.44167 18.3845 6.9965 18.3845ZM2.6155 14.7693H11.3845V6.84625C11.3845 5.63075 10.9576 4.59608 10.1038 3.74225C9.24992 2.88842 8.21533 2.4615 7 2.4615C5.78467 2.4615 4.75008 2.88842 3.89625 3.74225C3.04242 4.59608 2.6155 5.63075 2.6155 6.84625V14.7693Z" fill="#2C2E33"/>
</svg>
