<svg width="20" height="21" viewBox="0 0 20 21" fill="none" xmlns="http://www.w3.org/2000/svg">
<mask id="mask0_20825_23203" style="mask-type:alpha" maskUnits="userSpaceOnUse" x="0" y="0" width="20" height="21">
<rect y="0.579224" width="20" height="20" fill="#D9D9D9"/>
</mask>
<g mask="url(#mask0_20825_23203)">
<path d="M2.49996 9.42552V8.59218H5.77246L1.14746 3.98302L1.73704 3.39343L6.34621 8.00239V4.74593H7.17954V9.42552H2.49996ZM3.84621 16.4126C3.4626 16.4126 3.14232 16.2841 2.88538 16.0272C2.62843 15.7702 2.49996 15.45 2.49996 15.0663V11.4126H3.33329V15.0663C3.33329 15.2159 3.38135 15.3389 3.47746 15.4351C3.57371 15.5312 3.69663 15.5793 3.84621 15.5793H9.80767V16.4126H3.84621ZM16.6666 11.2203V6.09218C16.6666 5.9426 16.6186 5.81968 16.5225 5.72343C16.4262 5.62732 16.3033 5.57927 16.1537 5.57927H9.16663V4.74593H16.1537C16.5373 4.74593 16.8576 4.8744 17.1145 5.13135C17.3715 5.38829 17.5 5.70857 17.5 6.09218V11.2203H16.6666ZM11.7948 16.4126V13.2074H17.5V16.4126H11.7948Z" fill="white"/>
</g>
</svg>
