<svg width="120" height="121" viewBox="0 0 120 121" fill="none" xmlns="http://www.w3.org/2000/svg">
<path d="M56.8755 86.415H96.1255V57.04H56.8755V86.415ZM21.8755 95.79C19.9588 95.79 18.3338 95.1234 17.0005 93.79C15.6672 92.4567 15.0005 90.8317 15.0005 88.915V32.665C15.0005 30.7484 15.6672 29.1234 17.0005 27.79C18.3338 26.4567 19.9588 25.79 21.8755 25.79H98.1255C100.042 25.79 101.667 26.4567 103 27.79C104.334 29.1234 105 30.7484 105 32.665V88.915C105 90.8317 104.334 92.4567 103 93.79C101.667 95.1234 100.042 95.79 98.1255 95.79H21.8755ZM21.8755 91.915C21.0422 91.915 20.3338 91.6234 19.7505 91.04C19.1672 90.4567 18.8755 89.7484 18.8755 88.915V32.665C18.8755 31.8317 19.1672 31.1234 19.7505 30.54C20.3338 29.9567 21.0422 29.665 21.8755 29.665C21.0422 29.665 20.3338 29.9567 19.7505 30.54C19.1672 31.1234 18.8755 31.8317 18.8755 32.665V88.915C18.8755 89.7484 19.1672 90.4567 19.7505 91.04C20.3338 91.6234 21.0422 91.915 21.8755 91.915ZM21.8755 91.915H98.1255C98.9588 91.915 99.6672 91.6234 100.25 91.04C100.834 90.4567 101.125 89.7484 101.125 88.915V32.665C101.125 31.8317 100.834 31.1234 100.25 30.54C99.6672 29.9567 98.9588 29.665 98.1255 29.665H21.8755C21.0422 29.665 20.3338 29.9567 19.7505 30.54C19.1672 31.1234 18.8755 31.8317 18.8755 32.665V88.915C18.8755 89.7484 19.1672 90.4567 19.7505 91.04C20.3338 91.6234 21.0422 91.915 21.8755 91.915ZM60.7505 82.54V60.79H92.3755V82.54H60.7505Z" fill="#7E7E81"/>
</svg>
