<svg width="48" height="49" viewBox="0 0 48 49" fill="none" xmlns="http://www.w3.org/2000/svg">
<mask id="mask0_24601_3783" style="mask-type:alpha" maskUnits="userSpaceOnUse" x="0" y="0" width="48" height="49">
<rect y="0.579102" width="48" height="48" fill="#D9D9D9"/>
</mask>
<g mask="url(#mask0_24601_3783)">
<path d="M20.3496 31.0291L30.4496 24.5791L20.3496 18.1291V31.0291ZM24.0081 41.9791C21.6024 41.9791 19.3486 41.5226 17.2466 40.6096C15.1446 39.6966 13.3018 38.4491 11.7181 36.8671C10.1341 35.2851 8.88511 33.4446 7.97111 31.3456C7.05678 29.2462 6.59961 26.9936 6.59961 24.5876C6.59961 22.1819 7.05611 19.9197 7.96911 17.8011C8.88211 15.6824 10.1296 13.8396 11.7116 12.2726C13.2936 10.7052 15.1341 9.46458 17.2331 8.55058C19.3324 7.63624 21.5851 7.17908 23.9911 7.17908C26.3968 7.17908 28.6589 7.63558 30.7776 8.54858C32.8963 9.46158 34.7391 10.7007 36.3061 12.2661C37.8734 13.8314 39.1141 15.6719 40.0281 17.7876C40.9424 19.9036 41.3996 22.1646 41.3996 24.5706C41.3996 26.9762 40.9431 29.2301 40.0301 31.3321C39.1171 33.4341 37.8779 35.2769 36.3126 36.8606C34.7473 38.4446 32.9068 39.6936 30.7911 40.6076C28.6751 41.5219 26.4141 41.9791 24.0081 41.9791ZM23.9996 40.8791C28.5329 40.8791 32.3829 39.2957 35.5496 36.1291C38.7163 32.9624 40.2996 29.1124 40.2996 24.5791C40.2996 20.0457 38.7163 16.1957 35.5496 13.0291C32.3829 9.86241 28.5329 8.27908 23.9996 8.27908C19.4663 8.27908 15.6163 9.86241 12.4496 13.0291C9.28294 16.1957 7.69961 20.0457 7.69961 24.5791C7.69961 29.1124 9.28294 32.9624 12.4496 36.1291C15.6163 39.2957 19.4663 40.8791 23.9996 40.8791Z" fill="white"/>
</g>
</svg>
