<svg width="20" height="20" viewBox="0 0 20 20" fill="none" xmlns="http://www.w3.org/2000/svg">
<path d="M7.69225 19.5L7.3115 16.4538C7.04366 16.3641 6.769 16.2385 6.4875 16.077C6.20616 15.9153 5.95458 15.7422 5.73275 15.5577L2.9115 16.75L0.603996 12.75L3.04425 10.9058C3.02125 10.7571 3.00491 10.6077 2.99525 10.4578C2.98558 10.3078 2.98075 10.1583 2.98075 10.0095C2.98075 9.86733 2.98558 9.72283 2.99525 9.576C3.00491 9.42917 3.02125 9.26858 3.04425 9.09425L0.603996 7.25L2.9115 3.26925L5.723 4.452C5.96416 4.261 6.22158 4.08633 6.49525 3.928C6.76891 3.76967 7.03783 3.64242 7.302 3.54625L7.69225 0.5H12.3077L12.6885 3.55575C12.9885 3.66475 13.2599 3.792 13.5027 3.9375C13.7457 4.083 13.991 4.2545 14.2385 4.452L17.0885 3.26925L19.396 7.25L16.9172 9.123C16.9531 9.2845 16.9727 9.4355 16.976 9.576C16.9792 9.71633 16.9807 9.85767 16.9807 10C16.9807 10.1358 16.9775 10.274 16.971 10.4145C16.9647 10.5548 16.9417 10.7154 16.902 10.8963L19.3615 12.75L17.0537 16.75L14.2385 15.548C13.991 15.7455 13.7384 15.9202 13.4807 16.072C13.2231 16.224 12.959 16.3481 12.6885 16.4443L12.3077 19.5H7.69225ZM9 18H10.9655L11.325 15.3212C11.8353 15.1879 12.3017 14.9985 12.724 14.753C13.1465 14.5073 13.5539 14.1916 13.9462 13.8057L16.4307 14.85L17.4155 13.15L15.2462 11.5155C15.3296 11.2565 15.3862 11.0026 15.4162 10.7537C15.4464 10.5051 15.4615 10.2538 15.4615 10C15.4615 9.73967 15.4464 9.48842 15.4162 9.24625C15.3862 9.00392 15.3296 8.75642 15.2462 8.50375L17.4345 6.85L16.45 5.15L13.9365 6.2095C13.6018 5.85183 13.2009 5.53583 12.7337 5.2615C12.2664 4.98717 11.7937 4.79292 11.3155 4.67875L11 2H9.0155L8.6845 4.66925C8.17433 4.78975 7.70325 4.97433 7.27125 5.223C6.83908 5.47183 6.42683 5.79233 6.0345 6.1845L3.55 5.15L2.5655 6.85L4.725 8.4595C4.64166 8.69683 4.58333 8.94367 4.55 9.2C4.51666 9.45633 4.5 9.72617 4.5 10.0095C4.5 10.2698 4.51666 10.525 4.55 10.775C4.58333 11.025 4.6385 11.2718 4.7155 11.5155L2.5655 13.15L3.55 14.85L6.025 13.8C6.4045 14.1897 6.81025 14.5089 7.24225 14.7578C7.67441 15.0064 8.152 15.1974 8.675 15.3307L9 18ZM10.0115 13C10.8435 13 11.5515 12.708 12.1355 12.124C12.7195 11.54 13.0115 10.832 13.0115 10C13.0115 9.168 12.7195 8.46 12.1355 7.876C11.5515 7.292 10.8435 7 10.0115 7C9.16916 7 8.45858 7.292 7.87975 7.876C7.30091 8.46 7.0115 9.168 7.0115 10C7.0115 10.832 7.30091 11.54 7.87975 12.124C8.45858 12.708 9.16916 13 10.0115 13Z" fill="#2C2E33"/>
</svg>
