<svg width="14" height="16" viewBox="0 0 14 16" fill="none" xmlns="http://www.w3.org/2000/svg">
<path d="M1.88503 15.729C1.4247 15.729 1.04036 15.5748 0.732031 15.2665C0.423698 14.9582 0.269531 14.5738 0.269531 14.1135V7.34449C0.269531 6.88416 0.423698 6.49983 0.732031 6.19149C1.04036 5.88316 1.4247 5.72899 1.88503 5.72899H4.00028V6.729H1.88503C1.73103 6.729 1.58995 6.79308 1.46178 6.92124C1.33361 7.04941 1.26953 7.1905 1.26953 7.34449V14.1135C1.26953 14.2675 1.33361 14.4086 1.46178 14.5367C1.58995 14.6649 1.73103 14.729 1.88503 14.729L12.1157 14.729C12.2697 14.729 12.4108 14.6649 12.539 14.5367C12.6672 14.4086 12.7312 14.2675 12.7312 14.1135V7.34448C12.7312 7.19048 12.6672 7.0494 12.539 6.92123C12.4108 6.79306 12.2697 6.72898 12.1157 6.72898H10.0005V5.72898H12.1157C12.5761 5.72898 12.9604 5.88315 13.2687 6.19148C13.5771 6.49981 13.7312 6.88415 13.7312 7.34448V14.1135C13.7312 14.5738 13.5771 14.9581 13.2687 15.2665C12.9604 15.5748 12.5761 15.729 12.1157 15.729L1.88503 15.729ZM6.50005 10.229V1.92125L4.40005 4.02125L3.6923 3.30775L7.00005 0L10.3078 3.30775L9.60005 4.02125L7.50005 1.92125V10.229H6.50005Z" fill="#2C2E33"/>
</svg>
