<svg width="52" height="52" viewBox="0 0 52 52" fill="none" xmlns="http://www.w3.org/2000/svg">
<rect width="52" height="52" rx="26" fill="#DCDFE6"/>
<path d="M18 31.5C17.45 31.5 16.9792 31.3042 16.5875 30.9125C16.1958 30.5208 16 30.05 16 29.5V21.65C16 21.4 16.0708 21.1542 16.2125 20.9125C16.3542 20.6708 16.55 20.4833 16.8 20.35L24.5 16.5L32.05 20.35C32.25 20.45 32.4208 20.6083 32.5625 20.825C32.7042 21.0417 32.8 21.2667 32.85 21.5H29.925L24.5 18.75L18 21.975V31.5ZM21 35.5C20.45 35.5 19.9792 35.3042 19.5875 34.9125C19.1958 34.5208 19 34.05 19 33.5V24.5C19 23.95 19.1958 23.4792 19.5875 23.0875C19.9792 22.6958 20.45 22.5 21 22.5H34C34.55 22.5 35.0208 22.6958 35.4125 23.0875C35.8042 23.4792 36 23.95 36 24.5V33.5C36 34.05 35.8042 34.5208 35.4125 34.9125C35.0208 35.3042 34.55 35.5 34 35.5H21ZM27.5 29.85L21 26.5V33.5H34V26.5L27.5 29.85ZM27.5 27.85L34 24.5H21L27.5 27.85Z" fill="#2C2E33"/>
</svg>
