<svg width="18" height="15" viewBox="0 0 18 15" fill="none" xmlns="http://www.w3.org/2000/svg">
<path d="M11.925 14.0114C11.2382 13.3523 10.8947 12.5455 10.8947 11.5909C10.8947 10.6364 11.2382 9.82955 11.925 9.17045C12.6118 8.51136 13.4526 8.18182 14.4474 8.18182C15.4421 8.18182 16.2829 8.51136 16.9697 9.17045C17.6566 9.82955 18 10.6364 18 11.5909C18 12.5455 17.6566 13.3523 16.9697 14.0114C16.2829 14.6705 15.4421 15 14.4474 15C13.4526 15 12.6118 14.6705 11.925 14.0114ZM15.6197 12.7159C15.9434 12.4053 16.1053 12.0303 16.1053 11.5909C16.1053 11.1515 15.9434 10.7765 15.6197 10.4659C15.2961 10.1553 14.9053 10 14.4474 10C13.9895 10 13.5987 10.1553 13.275 10.4659C12.9513 10.7765 12.7895 11.1515 12.7895 11.5909C12.7895 12.0303 12.9513 12.4053 13.275 12.7159C13.5987 13.0265 13.9895 13.1818 14.4474 13.1818C14.9053 13.1818 15.2961 13.0265 15.6197 12.7159ZM1.42105 12.5V10.6818H9V12.5H1.42105ZM1.03026 5.82955C0.343421 5.17045 0 4.36364 0 3.40909C0 2.45455 0.343421 1.64773 1.03026 0.988636C1.71711 0.329545 2.55789 0 3.55263 0C4.54737 0 5.38816 0.329545 6.075 0.988636C6.76184 1.64773 7.10526 2.45455 7.10526 3.40909C7.10526 4.36364 6.76184 5.17045 6.075 5.82955C5.38816 6.48864 4.54737 6.81818 3.55263 6.81818C2.55789 6.81818 1.71711 6.48864 1.03026 5.82955ZM4.725 4.53409C5.04868 4.22348 5.21053 3.84848 5.21053 3.40909C5.21053 2.9697 5.04868 2.5947 4.725 2.28409C4.40132 1.97348 4.01053 1.81818 3.55263 1.81818C3.09474 1.81818 2.70395 1.97348 2.38026 2.28409C2.05658 2.5947 1.89474 2.9697 1.89474 3.40909C1.89474 3.84848 2.05658 4.22348 2.38026 4.53409C2.70395 4.8447 3.09474 5 3.55263 5C4.01053 5 4.40132 4.8447 4.725 4.53409ZM9 4.31818V2.5H16.5789V4.31818H9Z" fill="white"/>
</svg>
