<svg width="14" height="13" viewBox="0 0 14 13" fill="none" xmlns="http://www.w3.org/2000/svg">
<mask id="path-1-inside-1_679_3009" fill="white">
<path d="M0.736842 4.33333C0.882576 4.33333 1.02504 4.29098 1.14621 4.21162C1.26738 4.13226 1.36183 4.01946 1.4176 3.88749C1.47337 3.75552 1.48796 3.61031 1.45953 3.47021C1.43109 3.33012 1.36092 3.20143 1.25787 3.10042C1.15482 2.99942 1.02353 2.93063 0.880593 2.90277C0.737659 2.8749 0.589505 2.8892 0.454865 2.94386C0.320224 2.99853 0.205146 3.0911 0.12418 3.20987C0.0432151 3.32863 0 3.46827 0 3.61111C0 3.80266 0.0776313 3.98636 0.215816 4.1218C0.354001 4.25724 0.541419 4.33333 0.736842 4.33333ZM3.68421 4.33333H8.8421C9.42837 4.33333 9.99063 4.10506 10.4052 3.69873C10.8197 3.2924 11.0526 2.7413 11.0526 2.16667C11.0526 1.59203 10.8197 1.04093 10.4052 0.634602C9.99063 0.228273 9.42837 0 8.8421 0C8.45447 0.00157188 8.0738 0.10107 7.73684 0.288889C7.65241 0.336072 7.57833 0.399161 7.51888 0.474522C7.45943 0.549884 7.41578 0.63603 7.39044 0.727997C7.3651 0.819965 7.35857 0.915938 7.37123 1.01039C7.38389 1.10484 7.41549 1.1959 7.46421 1.27833C7.51296 1.36049 7.57778 1.4324 7.65494 1.48996C7.73211 1.54751 7.8201 1.58957 7.91388 1.61372C8.00766 1.63788 8.10539 1.64365 8.20145 1.63072C8.29751 1.61778 8.39003 1.58638 8.47368 1.53833C8.58704 1.47855 8.7134 1.44635 8.8421 1.44444C9.03753 1.44444 9.22495 1.52054 9.36313 1.65598C9.50132 1.79142 9.57895 1.97512 9.57895 2.16667C9.57895 2.35821 9.50132 2.54191 9.36313 2.67735C9.22495 2.8128 9.03753 2.88889 8.8421 2.88889H3.68421C3.48879 2.88889 3.30137 2.96498 3.16318 3.10042C3.025 3.23587 2.94737 3.41957 2.94737 3.61111C2.94737 3.80266 3.025 3.98636 3.16318 4.1218C3.30137 4.25724 3.48879 4.33333 3.68421 4.33333ZM0.736842 7.22222H5.89474C6.09016 7.22222 6.27758 7.14613 6.41576 7.01069C6.55395 6.87525 6.63158 6.69155 6.63158 6.5C6.63158 6.30845 6.55395 6.12475 6.41576 5.98931C6.27758 5.85387 6.09016 5.77778 5.89474 5.77778H0.736842C0.541419 5.77778 0.354001 5.85387 0.215816 5.98931C0.0776313 6.12475 0 6.30845 0 6.5C0 6.69155 0.0776313 6.87525 0.215816 7.01069C0.354001 7.14613 0.541419 7.22222 0.736842 7.22222ZM13.2632 4.33333C13.4089 4.33333 13.5514 4.29098 13.6725 4.21162C13.7937 4.13226 13.8881 4.01946 13.9439 3.88749C13.9997 3.75552 14.0143 3.61031 13.9858 3.47021C13.9574 3.33012 13.8872 3.20143 13.7842 3.10042C13.6811 2.99942 13.5498 2.93063 13.4069 2.90277C13.264 2.8749 13.1158 2.8892 12.9812 2.94386C12.8465 2.99853 12.7315 3.0911 12.6505 3.20987C12.5695 3.32863 12.5263 3.46827 12.5263 3.61111C12.5263 3.80266 12.6039 3.98636 12.7421 4.1218C12.8803 4.25724 13.0677 4.33333 13.2632 4.33333ZM11.7895 5.77778H8.8421C8.64668 5.77778 8.45926 5.85387 8.32108 5.98931C8.18289 6.12475 8.10526 6.30845 8.10526 6.5C8.10526 6.69155 8.18289 6.87525 8.32108 7.01069C8.45926 7.14613 8.64668 7.22222 8.8421 7.22222H11.7895C11.9849 7.22222 12.1723 7.29831 12.3105 7.43376C12.4487 7.5692 12.5263 7.7529 12.5263 7.94444C12.5263 8.13599 12.4487 8.31969 12.3105 8.45513C12.1723 8.59058 11.9849 8.66667 11.7895 8.66667C11.5941 8.66667 11.4066 8.74276 11.2684 8.8782C11.1303 9.01364 11.0526 9.19734 11.0526 9.38889C11.0526 9.58043 11.1303 9.76413 11.2684 9.89958C11.4066 10.035 11.5941 10.1111 11.7895 10.1111C12.3757 10.1111 12.938 9.88284 13.3526 9.47651C13.7671 9.07018 14 8.51908 14 7.94444C14 7.36981 13.7671 6.81871 13.3526 6.41238C12.938 6.00605 12.3757 5.77778 11.7895 5.77778ZM7.36842 8.66667H4.42105C4.22563 8.66667 4.03821 8.74276 3.90003 8.8782C3.76184 9.01364 3.68421 9.19734 3.68421 9.38889C3.68421 9.58043 3.76184 9.76413 3.90003 9.89958C4.03821 10.035 4.22563 10.1111 4.42105 10.1111H7.36842C7.56384 10.1111 7.75126 10.1872 7.88945 10.3226C8.02763 10.4581 8.10526 10.6418 8.10526 10.8333C8.10526 11.0249 8.02763 11.2086 7.88945 11.344C7.75126 11.4795 7.56384 11.5556 7.36842 11.5556C7.23971 11.5536 7.11336 11.5214 7 11.4617C6.91613 11.4094 6.82235 11.3743 6.72429 11.3585C6.62623 11.3427 6.52592 11.3465 6.4294 11.3697C6.33288 11.3928 6.24213 11.4349 6.16263 11.4934C6.08312 11.5518 6.0165 11.6254 5.96677 11.7097C5.91703 11.7941 5.88522 11.8874 5.87324 11.9841C5.86125 12.0808 5.86935 12.1788 5.89704 12.2724C5.92473 12.3659 5.97144 12.453 6.03435 12.5284C6.09727 12.6038 6.1751 12.666 6.26316 12.7111C6.60012 12.8989 6.98079 12.9984 7.36842 13C7.95469 13 8.51694 12.7717 8.9315 12.3654C9.34605 11.9591 9.57895 11.408 9.57895 10.8333C9.57895 10.2587 9.34605 9.7076 8.9315 9.30127C8.51694 8.89494 7.95469 8.66667 7.36842 8.66667ZM1.47368 8.66667H0.736842C0.541419 8.66667 0.354001 8.74276 0.215816 8.8782C0.0776313 9.01364 0 9.19734 0 9.38889C0 9.58043 0.0776313 9.76413 0.215816 9.89958C0.354001 10.035 0.541419 10.1111 0.736842 10.1111H1.47368C1.66911 10.1111 1.85653 10.035 1.99471 9.89958C2.13289 9.76413 2.21053 9.58043 2.21053 9.38889C2.21053 9.19734 2.13289 9.01364 1.99471 8.8782C1.85653 8.74276 1.66911 8.66667 1.47368 8.66667Z"/>
</mask>
<path d="M0.736842 4.33333C0.882576 4.33333 1.02504 4.29098 1.14621 4.21162C1.26738 4.13226 1.36183 4.01946 1.4176 3.88749C1.47337 3.75552 1.48796 3.61031 1.45953 3.47021C1.43109 3.33012 1.36092 3.20143 1.25787 3.10042C1.15482 2.99942 1.02353 2.93063 0.880593 2.90277C0.737659 2.8749 0.589505 2.8892 0.454865 2.94386C0.320224 2.99853 0.205146 3.0911 0.12418 3.20987C0.0432151 3.32863 0 3.46827 0 3.61111C0 3.80266 0.0776313 3.98636 0.215816 4.1218C0.354001 4.25724 0.541419 4.33333 0.736842 4.33333ZM3.68421 4.33333H8.8421C9.42837 4.33333 9.99063 4.10506 10.4052 3.69873C10.8197 3.2924 11.0526 2.7413 11.0526 2.16667C11.0526 1.59203 10.8197 1.04093 10.4052 0.634602C9.99063 0.228273 9.42837 0 8.8421 0C8.45447 0.00157188 8.0738 0.10107 7.73684 0.288889C7.65241 0.336072 7.57833 0.399161 7.51888 0.474522C7.45943 0.549884 7.41578 0.63603 7.39044 0.727997C7.3651 0.819965 7.35857 0.915938 7.37123 1.01039C7.38389 1.10484 7.41549 1.1959 7.46421 1.27833C7.51296 1.36049 7.57778 1.4324 7.65494 1.48996C7.73211 1.54751 7.8201 1.58957 7.91388 1.61372C8.00766 1.63788 8.10539 1.64365 8.20145 1.63072C8.29751 1.61778 8.39003 1.58638 8.47368 1.53833C8.58704 1.47855 8.7134 1.44635 8.8421 1.44444C9.03753 1.44444 9.22495 1.52054 9.36313 1.65598C9.50132 1.79142 9.57895 1.97512 9.57895 2.16667C9.57895 2.35821 9.50132 2.54191 9.36313 2.67735C9.22495 2.8128 9.03753 2.88889 8.8421 2.88889H3.68421C3.48879 2.88889 3.30137 2.96498 3.16318 3.10042C3.025 3.23587 2.94737 3.41957 2.94737 3.61111C2.94737 3.80266 3.025 3.98636 3.16318 4.1218C3.30137 4.25724 3.48879 4.33333 3.68421 4.33333ZM0.736842 7.22222H5.89474C6.09016 7.22222 6.27758 7.14613 6.41576 7.01069C6.55395 6.87525 6.63158 6.69155 6.63158 6.5C6.63158 6.30845 6.55395 6.12475 6.41576 5.98931C6.27758 5.85387 6.09016 5.77778 5.89474 5.77778H0.736842C0.541419 5.77778 0.354001 5.85387 0.215816 5.98931C0.0776313 6.12475 0 6.30845 0 6.5C0 6.69155 0.0776313 6.87525 0.215816 7.01069C0.354001 7.14613 0.541419 7.22222 0.736842 7.22222ZM13.2632 4.33333C13.4089 4.33333 13.5514 4.29098 13.6725 4.21162C13.7937 4.13226 13.8881 4.01946 13.9439 3.88749C13.9997 3.75552 14.0143 3.61031 13.9858 3.47021C13.9574 3.33012 13.8872 3.20143 13.7842 3.10042C13.6811 2.99942 13.5498 2.93063 13.4069 2.90277C13.264 2.8749 13.1158 2.8892 12.9812 2.94386C12.8465 2.99853 12.7315 3.0911 12.6505 3.20987C12.5695 3.32863 12.5263 3.46827 12.5263 3.61111C12.5263 3.80266 12.6039 3.98636 12.7421 4.1218C12.8803 4.25724 13.0677 4.33333 13.2632 4.33333ZM11.7895 5.77778H8.8421C8.64668 5.77778 8.45926 5.85387 8.32108 5.98931C8.18289 6.12475 8.10526 6.30845 8.10526 6.5C8.10526 6.69155 8.18289 6.87525 8.32108 7.01069C8.45926 7.14613 8.64668 7.22222 8.8421 7.22222H11.7895C11.9849 7.22222 12.1723 7.29831 12.3105 7.43376C12.4487 7.5692 12.5263 7.7529 12.5263 7.94444C12.5263 8.13599 12.4487 8.31969 12.3105 8.45513C12.1723 8.59058 11.9849 8.66667 11.7895 8.66667C11.5941 8.66667 11.4066 8.74276 11.2684 8.8782C11.1303 9.01364 11.0526 9.19734 11.0526 9.38889C11.0526 9.58043 11.1303 9.76413 11.2684 9.89958C11.4066 10.035 11.5941 10.1111 11.7895 10.1111C12.3757 10.1111 12.938 9.88284 13.3526 9.47651C13.7671 9.07018 14 8.51908 14 7.94444C14 7.36981 13.7671 6.81871 13.3526 6.41238C12.938 6.00605 12.3757 5.77778 11.7895 5.77778ZM7.36842 8.66667H4.42105C4.22563 8.66667 4.03821 8.74276 3.90003 8.8782C3.76184 9.01364 3.68421 9.19734 3.68421 9.38889C3.68421 9.58043 3.76184 9.76413 3.90003 9.89958C4.03821 10.035 4.22563 10.1111 4.42105 10.1111H7.36842C7.56384 10.1111 7.75126 10.1872 7.88945 10.3226C8.02763 10.4581 8.10526 10.6418 8.10526 10.8333C8.10526 11.0249 8.02763 11.2086 7.88945 11.344C7.75126 11.4795 7.56384 11.5556 7.36842 11.5556C7.23971 11.5536 7.11336 11.5214 7 11.4617C6.91613 11.4094 6.82235 11.3743 6.72429 11.3585C6.62623 11.3427 6.52592 11.3465 6.4294 11.3697C6.33288 11.3928 6.24213 11.4349 6.16263 11.4934C6.08312 11.5518 6.0165 11.6254 5.96677 11.7097C5.91703 11.7941 5.88522 11.8874 5.87324 11.9841C5.86125 12.0808 5.86935 12.1788 5.89704 12.2724C5.92473 12.3659 5.97144 12.453 6.03435 12.5284C6.09727 12.6038 6.1751 12.666 6.26316 12.7111C6.60012 12.8989 6.98079 12.9984 7.36842 13C7.95469 13 8.51694 12.7717 8.9315 12.3654C9.34605 11.9591 9.57895 11.408 9.57895 10.8333C9.57895 10.2587 9.34605 9.7076 8.9315 9.30127C8.51694 8.89494 7.95469 8.66667 7.36842 8.66667ZM1.47368 8.66667H0.736842C0.541419 8.66667 0.354001 8.74276 0.215816 8.8782C0.0776313 9.01364 0 9.19734 0 9.38889C0 9.58043 0.0776313 9.76413 0.215816 9.89958C0.354001 10.035 0.541419 10.1111 0.736842 10.1111H1.47368C1.66911 10.1111 1.85653 10.035 1.99471 9.89958C2.13289 9.76413 2.21053 9.58043 2.21053 9.38889C2.21053 9.19734 2.13289 9.01364 1.99471 8.8782C1.85653 8.74276 1.66911 8.66667 1.47368 8.66667Z" fill="#FCF5E6" stroke="white" stroke-width="2" mask="url(#path-1-inside-1_679_3009)"/>
</svg>
